<?xml version="1.0" standalone="no"?>
<!DOCTYPE svg PUBLIC "-//W3C//DTD SVG 20010904//EN"
 "http://www.w3.org/TR/2001/REC-SVG-20010904/DTD/svg10.dtd">
<svg version="1.0" xmlns="http://www.w3.org/2000/svg"
 width="2000.000000pt" height="2000.000000pt" viewBox="0 0 2000.000000 2000.000000"
 preserveAspectRatio="xMidYMid meet">
<metadata>
Created by potrace 1.14, written by Peter Selinger 2001-2017
</metadata>
<g transform="translate(0.000000,2000.000000) scale(0.100000,-0.100000)"
fill="#000000" stroke="none">
<path d="M9727 19164 c-1 -1 -74 -5 -162 -8 -88 -4 -178 -9 -200 -11 -22 -2
-76 -6 -120 -10 -158 -11 -273 -24 -475 -50 -158 -21 -181 -24 -210 -30 -44
-8 -84 -15 -130 -21 -25 -3 -52 -8 -60 -9 -487 -98 -649 -136 -960 -227 -295
-85 -728 -237 -897 -314 -17 -8 -34 -14 -37 -14 -12 0 -358 -156 -516 -233
-148 -71 -355 -180 -465 -244 -22 -12 -47 -26 -55 -30 -8 -4 -89 -52 -180
-107 -348 -210 -710 -461 -980 -680 -41 -33 -79 -64 -85 -69 -64 -50 -170
-141 -350 -299 -32 -29 -157 -148 -260 -248 -300 -291 -623 -654 -847 -950
-32 -41 -61 -80 -66 -86 -82 -95 -532 -764 -532 -789 0 -3 -15 -28 -34 -57
-110 -173 -362 -659 -471 -908 -20 -47 -46 -105 -57 -130 -77 -169 -228 -573
-308 -825 -58 -184 -151 -511 -164 -576 -2 -13 -14 -62 -26 -109 -12 -47 -28
-114 -35 -150 -23 -116 -54 -274 -59 -305 -3 -16 -8 -43 -12 -58 -3 -16 -7
-38 -9 -50 -2 -12 -10 -67 -18 -122 -9 -55 -19 -120 -22 -145 -3 -25 -8 -52
-10 -60 -2 -8 -7 -45 -10 -82 -3 -37 -7 -73 -9 -80 -3 -7 -8 -47 -11 -88 -4
-41 -8 -88 -10 -105 -1 -16 -6 -73 -10 -125 -4 -52 -9 -113 -11 -135 -23 -289
-23 -1118 1 -1268 2 -12 7 -62 10 -112 10 -129 12 -148 25 -265 16 -148 18
-168 41 -325 17 -118 30 -196 76 -445 2 -13 11 -56 19 -95 9 -38 18 -83 21
-100 9 -55 103 -427 144 -570 87 -299 216 -674 309 -895 17 -41 35 -86 39
-100 5 -14 25 -60 45 -103 20 -43 36 -80 36 -82 0 -32 324 -667 445 -873 6
-10 23 -40 39 -67 61 -106 171 -280 178 -283 5 -2 8 -8 8 -13 0 -10 137 -217
157 -237 7 -7 13 -17 13 -22 0 -5 6 -15 13 -22 6 -7 27 -36 46 -63 36 -52 224
-304 272 -365 36 -45 231 -282 244 -296 5 -6 37 -42 70 -80 314 -361 835 -859
1161 -1110 28 -21 98 -75 155 -119 193 -150 587 -425 607 -425 5 0 17 -9 27
-20 10 -11 22 -20 26 -20 5 0 46 -24 91 -53 187 -120 516 -301 773 -427 162
-79 518 -240 530 -240 3 0 24 -9 48 -19 122 -56 529 -201 747 -268 371 -113
826 -222 1140 -272 93 -16 122 -21 145 -26 11 -2 43 -7 70 -10 28 -4 78 -11
113 -16 34 -5 84 -12 110 -14 84 -9 136 -15 172 -20 40 -5 108 -11 225 -20 44
-3 94 -8 110 -10 187 -24 1027 -24 1285 0 19 2 76 6 125 10 50 4 104 8 120 10
17 2 64 7 105 10 41 4 82 8 90 10 16 4 65 11 150 20 30 3 82 10 115 15 33 5
78 12 100 15 22 4 47 8 55 10 8 2 35 7 60 10 25 4 124 22 220 41 217 43 202
40 308 65 48 12 95 23 104 24 34 7 254 66 373 101 243 71 736 241 798 275 9 5
38 16 63 25 25 8 73 28 107 44 34 15 89 40 123 54 145 60 538 255 659 326 17
9 55 31 85 47 74 41 205 118 260 153 25 16 59 37 75 46 41 23 345 226 423 283
137 100 292 218 387 295 99 80 325 274 335 287 3 3 28 25 55 48 50 43 326 313
421 413 84 89 295 329 359 408 33 41 62 77 65 80 3 3 37 46 76 95 440 561 830
1225 1124 1915 335 786 579 1710 685 2595 4 28 8 61 10 75 5 36 13 115 20 185
3 33 7 76 10 95 2 19 7 80 11 135 3 55 7 107 9 115 26 134 26 1281 0 1363 -2
7 -6 47 -10 90 -8 113 -50 401 -85 595 -33 183 -31 173 -63 322 l-23 105
-4272 3 -4272 2 0 -1774 0 -1774 2450 1 c1348 0 2453 -3 2457 -7 9 -9 -66
-308 -118 -471 -317 -996 -946 -1787 -1844 -2324 -152 -91 -368 -202 -505
-261 -41 -17 -93 -40 -115 -49 -22 -10 -74 -30 -115 -45 -41 -15 -84 -32 -95
-36 -26 -11 -174 -60 -290 -95 -172 -53 -549 -140 -690 -160 -23 -3 -50 -7
-60 -9 -24 -5 -154 -23 -210 -30 -22 -3 -89 -10 -150 -16 -60 -6 -130 -13
-155 -15 -223 -24 -841 -24 -1040 -1 -19 2 -66 7 -104 11 -38 4 -79 8 -90 10
-12 2 -43 6 -71 10 -61 7 -111 15 -145 21 -14 2 -41 7 -60 9 -19 3 -46 8 -60
11 -14 3 -36 8 -50 10 -55 10 -283 64 -390 93 -191 51 -548 177 -720 253 -69
31 -418 204 -475 235 -260 145 -629 399 -826 570 -31 26 -80 68 -110 93 -76
63 -413 401 -485 485 -32 38 -65 76 -72 84 -40 42 -181 223 -258 331 -195 272
-308 460 -457 760 -87 176 -93 189 -157 345 -22 55 -45 109 -50 120 -22 49
-142 414 -155 470 -2 11 -9 36 -14 55 -30 113 -39 149 -46 185 -5 22 -9 45
-11 50 -4 16 -32 147 -38 178 -21 118 -26 147 -31 187 -3 25 -7 56 -10 70 -6
29 -11 69 -20 165 -4 39 -8 86 -11 105 -26 227 -23 741 6 1020 6 52 13 120 16
150 3 30 7 62 9 70 2 8 7 35 10 60 8 60 33 204 46 260 12 58 19 89 25 120 2
14 16 68 29 120 14 52 28 106 31 120 44 179 141 454 265 750 40 96 233 471
299 580 176 292 399 597 619 845 51 57 366 372 426 426 35 30 202 171 260 218
144 116 445 321 620 421 17 10 59 34 95 55 112 64 440 221 575 275 72 29 139
56 150 61 154 62 520 171 700 210 33 7 65 14 70 15 6 1 46 9 90 18 44 8 89 17
100 20 36 7 159 26 205 31 25 2 54 7 66 9 12 2 57 8 100 12 43 3 93 8 109 10
224 23 740 23 950 0 17 -2 62 -6 100 -10 39 -3 81 -8 95 -11 14 -2 45 -7 70
-10 25 -3 56 -7 70 -10 13 -2 42 -7 65 -11 22 -3 84 -14 138 -25 53 -10 111
-21 129 -24 17 -3 34 -8 38 -10 4 -2 22 -7 40 -10 163 -29 644 -185 844 -275
34 -14 81 -35 106 -45 95 -40 431 -215 555 -290 174 -105 353 -227 508 -347
71 -54 132 -99 137 -101 6 -1 608 597 1340 1328 l1331 1330 -29 25 c-88 77
-130 112 -257 214 -163 131 -329 258 -400 306 -27 18 -52 37 -55 41 -13 17
-475 318 -635 413 -99 59 -187 111 -195 116 -8 5 -42 24 -75 41 -33 18 -82 45
-110 60 -27 15 -138 71 -245 124 -107 53 -203 101 -213 106 -39 21 -367 163
-477 206 -280 110 -654 237 -895 303 -147 41 -445 116 -495 125 -14 3 -101 20
-195 39 -93 19 -188 37 -210 40 -23 4 -50 8 -60 10 -11 2 -56 9 -100 16 -121
17 -138 20 -165 25 -14 2 -50 7 -80 10 -30 3 -73 7 -95 10 -22 3 -60 7 -85 10
-138 16 -213 22 -525 41 -100 6 -712 13 -718 8z"/>
</g>
</svg>
