<?xml version="1.0" standalone="no"?>
<!DOCTYPE svg PUBLIC "-//W3C//DTD SVG 20010904//EN"
 "http://www.w3.org/TR/2001/REC-SVG-20010904/DTD/svg10.dtd">
<svg version="1.0" xmlns="http://www.w3.org/2000/svg"
 width="512.000000pt" height="512.000000pt" viewBox="0 0 512.000000 512.000000"
 preserveAspectRatio="xMidYMid meet">
<metadata>
Created by potrace 1.16, written by Peter Selinger 2001-2019
</metadata>
<g transform="translate(0.000000,512.000000) scale(0.100000,-0.100000)"
fill="#000000" stroke="none">
<path d="M455 5051 c-206 -60 -366 -224 -419 -428 -20 -78 -20 -218 0 -297 42
-163 164 -312 316 -384 97 -47 161 -62 263 -62 163 0 305 59 420 175 116 115
175 257 175 420 0 102 -15 166 -62 263 -72 152 -221 274 -384 316 -82 21 -231
20 -309 -3z"/>
<path d="M2380 5047 c-103 -31 -162 -68 -251 -156 -82 -82 -134 -174 -160
-281 -17 -70 -17 -199 0 -270 50 -209 228 -390 438 -444 77 -20 211 -20 288
-1 197 50 363 204 426 397 33 102 34 261 1 365 -27 88 -105 206 -175 268 -60
54 -189 118 -265 134 -88 18 -217 13 -302 -12z"/>
<path d="M4405 5063 c-217 -48 -392 -208 -458 -418 -32 -104 -30 -254 6 -353
37 -106 82 -175 163 -251 78 -72 167 -122 267 -148 85 -21 249 -13 334 17 233
82 403 320 403 565 0 270 -187 510 -452 581 -49 13 -217 18 -263 7z"/>
<path d="M525 3150 c-144 -22 -251 -76 -350 -175 -250 -249 -227 -657 50 -882
105 -85 237 -133 372 -133 100 0 164 15 263 62 143 69 256 198 311 358 29 86
32 246 5 335 -61 205 -227 370 -421 418 -80 20 -169 27 -230 17z"/>
<path d="M2453 3150 c-191 -26 -367 -157 -453 -335 -48 -100 -64 -179 -58
-292 7 -115 37 -204 99 -298 209 -312 650 -356 914 -91 121 122 176 254 176
426 1 360 -319 639 -678 590z"/>
<path d="M4419 3150 c-184 -29 -354 -150 -441 -316 -48 -91 -68 -173 -68 -276
0 -204 96 -384 265 -497 109 -73 190 -96 335 -96 85 0 129 5 170 19 200 67
354 228 404 422 20 79 21 222 1 299 -37 139 -138 278 -259 357 -109 70 -280
107 -407 88z"/>
<path d="M455 1221 c-259 -75 -435 -304 -438 -566 -2 -177 51 -306 177 -430
125 -124 248 -175 421 -175 163 0 303 57 415 170 332 331 179 889 -275 1005
-79 20 -224 18 -300 -4z"/>
<path d="M2435 1233 c-173 -42 -310 -140 -398 -285 -206 -340 -18 -786 373
-884 88 -22 251 -15 337 16 141 49 268 161 334 295 65 132 82 255 54 388 -48
226 -218 405 -440 462 -56 14 -214 19 -260 8z"/>
<path d="M4348 1217 c-202 -62 -355 -223 -408 -433 -25 -98 -25 -180 0 -278
52 -202 196 -361 388 -428 97 -33 287 -33 384 0 178 62 323 212 381 397 30 97
30 242 0 340 -40 129 -142 264 -252 334 -93 60 -175 84 -301 88 -98 3 -126 0
-192 -20z"/>
</g>
</svg>
